<svg width="50" height="50" viewBox="0 0 50 50" fill="none" xmlns="http://www.w3.org/2000/svg">
<path d="M0 0H45C47.7614 0 50 2.23858 50 5V50H5C2.23858 50 0 47.7614 0 45V0Z" fill="#F88500"/>
<g clip-path="url(#clip0_269_1143)">
<path d="M18.4774 27.8289L24.7664 21.3899C24.8174 21.3372 24.8785 21.2953 24.946 21.2667C25.0136 21.238 25.0862 21.2233 25.1596 21.2233C25.2329 21.2233 25.3055 21.238 25.3731 21.2667C25.4406 21.2953 25.5017 21.3372 25.5527 21.3899C25.6573 21.4978 25.7157 21.6421 25.7157 21.7923C25.7157 21.9425 25.6573 22.0868 25.5527 22.1946L19.2637 28.6335C19.2127 28.6863 19.1516 28.7282 19.0841 28.7568C19.0165 28.7855 18.9439 28.8002 18.8706 28.8002C18.7972 28.8002 18.7246 28.7855 18.657 28.7568C18.5895 28.7282 18.5284 28.6863 18.4774 28.6335C18.3728 28.5257 18.3144 28.3814 18.3144 28.2312C18.3144 28.081 18.3728 27.9367 18.4774 27.8289Z" fill="white"/>
<path d="M31.0498 28.6334L24.7608 22.1944C24.6563 22.0866 24.5978 21.9423 24.5978 21.7921C24.5978 21.6419 24.6563 21.4976 24.7608 21.3897C24.8118 21.337 24.8729 21.2951 24.9404 21.2665C25.008 21.2378 25.0806 21.2231 25.154 21.2231C25.2273 21.2231 25.2999 21.2378 25.3675 21.2665C25.435 21.2951 25.4961 21.337 25.5471 21.3897L31.8361 27.8287C31.9405 27.9367 31.9987 28.0811 31.9984 28.2313C31.9982 28.3815 31.9395 28.5257 31.8347 28.6334C31.7837 28.6859 31.7227 28.7276 31.6553 28.7561C31.5879 28.7846 31.5155 28.7993 31.4423 28.7993C31.3691 28.7993 31.2966 28.7846 31.2292 28.7561C31.1618 28.7276 31.1008 28.6859 31.0498 28.6334Z" fill="white"/>
</g>
<defs>
<clipPath id="clip0_269_1143">
<rect width="8.026" height="14.312" fill="white" transform="translate(32.312 21) rotate(90)"/>
</clipPath>
</defs>
</svg>
